# xmcd
#
# Track frame offsets:
# 150
# 8580
# 23016
# 35019
# 48294
# 66811
# 90054
# 93924
# 120913
# 146166
# 157841
# 175217
# 185885
# 189487
# 203378
# 218302
# 241551
# 253233
# 267829
# 287249
# 299850
# 315196
#
# Disc length: 4405 seconds
#
#
# Revision: 0
# Processed by: cddbd v1.5.1PL0 Copyright (c) Steve Scherf et al.
# Submitted via: FreeRIP 2.931 
#
DISCID=22113316
DTITLE=Various Artist - Hillbilly Heaven LIVE
DYEAR=1999
DGENRE=Country
TTITLE0=Dave Lang and Tolan McNeil-Try Me One More Time
TTITLE1=Bareback Riders-Jambalaya
TTITLE2=Dan Boeckner-Lost Highway
TTITLE3=The Corn Sisters-Tears In My Eyes
TTITLE4=Oh Susanna-Tangled and Wild
TTITLE5=Oh Susanna-Old Kate
TTITLE6=Suzy-Suzy on Hair
TTITLE7=Carolyn Mark-Terrible Hostess
TTITLE8=Clay George-Highway 29
TTITLE9=John Guliak and the Lougan Brothers-Ready
TTITLE10=Red-Eyed Rounders-Do You Wanna Dance With Me Cookie
TTITLE11=Dan Boeckner Speaks Out
TTITLE12=Dan Boeckner-Human Faced Dog
TTITLE13=Cousin Harley and The James Gang-White Lightnin
TTITLE14=Cousin Harley and The James Gang-Get That Bastard
TTITLE15=Darth Brooks-Nu-Country
TTITLE16=Harry and Jason Donaldson-Engine Engine Number 9
TTITLE17=Dave Gowans-Tennessee Stud
TTITLE18=Dave Lang and Tolan McNeil-42 Below Zero
TTITLE19=Clay George-Son Of God
TTITLE20=The Three Jack-Asses-Angel Of Death
TTITLE21=Hoss-Wish I se in Heaven Sittin Down
EXTD="Hillbilly Heaven" Live Recordings from CFUV FM 102 University of Victoria, Victoria, BC Canada
EXTT0=
EXTT1=
EXTT2=
EXTT3=
EXTT4=
EXTT5=
EXTT6=
EXTT7=
EXTT8=
EXTT9=
EXTT10=
EXTT11=
EXTT12=
EXTT13=
EXTT14=
EXTT15=
EXTT16=
EXTT17=
EXTT18=
EXTT19=
EXTT20=
EXTT21=
PLAYORDER=
